<svg xmlns="http://www.w3.org/2000/svg" viewBox="0 0 11.58 15.51"><defs><style>.a{fill:#f5897b;}</style></defs><title>Asset 1</title><path class="a" d="M10.74,8.8A3.31,3.31,0,0,0,8.49,7.47a2.87,2.87,0,0,0,1.84-1.21A3.52,3.52,0,0,0,11.08,4a3.91,3.91,0,0,0-.74-2.37A3.38,3.38,0,0,0,8.59.32,8.64,8.64,0,0,0,6.05,0H0V2.22H6a2.69,2.69,0,0,1,1.63.5A1.83,1.83,0,0,1,8.32,4.3a2.18,2.18,0,0,1-.61,1.59c-.4.41-1,.39-1.65.39H4.33V9H6.27a2.48,2.48,0,0,1,1.79.39A2.09,2.09,0,0,1,8.74,11a2.06,2.06,0,0,1-.67,1.63,2.58,2.58,0,0,1-1.81.6H2.65V4.33H0V15.51H6.78a4.83,4.83,0,0,0,3.62-1.22,4.16,4.16,0,0,0,1.18-3A3.81,3.81,0,0,0,10.74,8.8Z"/></svg>